<?xml version="1.0" standalone="yes"?>

<svg version="1.1" viewBox="0.0 0.0 196.753280839895 205.30708661417322" fill="none" stroke="none" stroke-linecap="square" stroke-miterlimit="10" xmlns="http://www.w3.org/2000/svg" xmlns:xlink="http://www.w3.org/1999/xlink"><clipPath id="p.0"><path d="m0 0l196.75328 0l0 205.30708l-196.75328 0l0 -205.30708z" clip-rule="nonzero"></path></clipPath><g clip-path="url(#p.0)"><path fill="#000000" fill-opacity="0.0" d="m0 0l196.75328 0l0 205.30708l-196.75328 0z" fill-rule="evenodd"></path><path fill="#efefef" d="m116.473465 29.11233c-19.460625 0 -36.399765 1.7462883 -50.817436 5.238863c-14.385342 3.474289 -25.408718 8.356579 -33.07012 14.646866c-7.6290836 6.290291 -11.443623 13.476582 -11.443623 21.558872c0 7.753151 3.4266186 14.244591 10.279863 19.474304c6.853243 5.211426 15.096529 9.334862 24.729856 12.370293c9.633335 3.035431 22.095242 6.2445755 37.38573 9.627434c11.92852 2.6880035 21.15776 4.9645767 27.687737 6.8297195c6.5623016 1.8468552 12.025505 4.1508636 16.389595 6.9120026c4.3964233 2.7428665 6.594635 6.025139 6.594635 9.84687c0 6.1805725 -4.768173 10.980576 -14.304535 14.400009c-9.536346 3.4194183 -22.741768 5.1291504 -39.616257 5.1291504c-16.292618 0 -28.96465 -1.2342987 -38.016098 -3.7028656c-9.019123 -2.468567 -13.528687 -6.226288 -13.528687 -11.273148c0 -1.2434387 0.14546967 -2.4228668 0.436409 -3.5382843c0.29093933 -1.133728 0.436409 -1.9200134 0.436409 -2.3588715c0.58187866 -1.7005615 0.872818 -3.666275 0.872818 -5.8971405c0 -2.4868546 -1.6809807 -4.516571 -5.0429497 -6.0891495c-3.3619728 -1.5725708 -7.726063 -2.3588562 -13.092279 -2.3588562c-7.370467 0 -12.946808 1.6365738 -16.729021 4.9097137c-3.749889 3.25486 -5.6248307 7.9725723 -5.6248307 14.15316c0 11.68457 7.9361815 20.36116 23.80855 26.029724c15.904694 5.668579 37.06246 8.502869 63.4733 8.502869c29.805138 0 53.58136 -3.5657196 71.328674 -10.697159c17.779633 -7.131424 26.669449 -17.325714 26.669449 -30.58287c0 -7.076576 -3.2326508 -13.02858 -9.697983 -17.856018c-6.4329987 -4.8457184 -14.223709 -8.667435 -23.372147 -11.465149c-9.116104 -2.816002 -21.222412 -5.961151 -36.31894 -9.435432c-12.510399 -2.8160095 -22.240715 -5.229721 -29.190933 -7.24115c-6.950218 -2.0297165 -12.769012 -4.5622864 -17.456367 -7.5977173c-4.655037 -3.0354385 -6.9825516 -6.683441 -6.9825516 -10.944008c0 -6.400009 4.5095596 -11.373726 13.528687 -14.921158c9.051453 -3.547432 22.111404 -5.321144 39.179855 -5.321144c12.122482 0 22.256866 1.2434311 30.403183 3.7302856c8.146301 2.4685745 12.219452 6.061722 12.219452 10.779438c0 0.8959999 -0.29093933 3.026287 -0.872818 6.3908653c-0.6141968 1.8102798 -0.9213104 3.776001 -0.9213104 5.8971405c0 2.4868622 1.7294769 4.626297 5.188431 6.418297c3.491272 1.7919922 7.823044 2.687996 12.9953 2.687996c7.338135 0 12.898315 -1.7919998 16.680527 -5.3759995c3.7822113 -3.6022873 5.6733246 -8.941719 5.6733246 -16.0183c0 -7.1862907 -3.6367493 -13.248009 -10.910233 -18.185158c-7.241165 -4.955429 -16.922989 -8.640003 -29.045471 -11.053719c-12.090149 -2.4137173 -25.392548 -3.6205769 -39.907196 -3.6205769z" fill-rule="evenodd"></path><path fill="#efefef" d="m70.3643 -5.041995E-4l23.874016 0l0 202.64568l-23.874016 0z" fill-rule="evenodd"></path><path fill="#efefef" d="m123.45056 -5.041995E-4l23.874023 0l0 202.64568l-23.874023 0z" fill-rule="evenodd"></path><path fill="#efefef" d="m39.32967 176.43341l0 24.514313l3.7935486 0l0 -20.868942l8.601418 20.868942l3.5501137 0l8.641987 -20.517776l0 20.517776l3.7935448 0l0 -24.514313l-5.294735 0l-7.120514 17.056335c-0.7167816 1.7279358 -1.2442284 3.0378113 -1.5823326 3.9296417c-0.29753494 -0.8026428 -0.77088165 -2.0121918 -1.4200478 -3.6286469l-7.039364 -17.35733z" fill-rule="evenodd"></path><path fill="#efefef" d="m161.69704 173.98085c-2.018753 0 -3.8533783 0.3152771 -5.503845 0.94581604c-1.6504669 0.63053894 -2.9053802 1.5553284 -3.7647095 2.7743835c-0.8593445 1.2148438 -1.2890015 2.5221558 -1.2890015 3.9219513c0 1.2736969 0.35009766 2.4254913 1.050293 3.455368c0.70474243 1.0256805 1.7732391 1.885315 3.2054596 2.5789185c1.1048584 0.54226685 3.034958 1.1202545 5.7902985 1.7339783c2.7553253 0.6095276 4.535385 1.0593109 5.340164 1.3493652c1.2548981 0.44137573 2.1551514 0.98783875 2.7007751 1.6394043c0.5456085 0.6473541 0.81840515 1.4060974 0.81840515 2.276245c0 0.85754395 -0.28416443 1.6499176 -0.85250854 2.3771362c-0.563797 0.72302246 -1.425415 1.2926178 -2.5848389 1.7087708c-1.1594238 0.41615295 -2.49617 0.62423706 -4.0102386 0.62423706c-1.7050323 0 -3.239563 -0.27323914 -4.6035767 -0.81970215c-1.3640289 -0.55067444 -2.3711395 -1.2694855 -3.0213318 -2.1564484c-0.6456299 -0.8911743 -1.0571136 -2.0303497 -1.234436 -3.4175262l-3.7442474 0.30265808c0.05455017 1.8537903 0.6024475 3.5163116 1.6436462 4.987564c1.0457611 1.4670715 2.4848022 2.5663147 4.3171387 3.2977295c1.8368988 0.73143005 4.112549 1.0971527 6.82695 1.0971527c2.1415253 0 4.0670776 -0.36151123 5.776657 -1.0845337c1.7141266 -0.7272339 3.0281372 -1.7424011 3.9420319 -3.045517c0.9139099 -1.307312 1.3708496 -2.6987152 1.3708496 -4.174179c0 -1.4880676 -0.41603088 -2.8016968 -1.2480774 -3.9408722c-0.83206177 -1.1433868 -2.1210632 -2.0870972 -3.8670197 -2.831131c-1.2003479 -0.5044403 -3.4146118 -1.0929413 -6.642807 -1.7655182c-3.223648 -0.6767731 -5.217407 -1.3367462 -5.981262 -1.9798889c-0.77749634 -0.64315796 -1.1662292 -1.4628601 -1.1662292 -2.4591217c0 -1.147583 0.5478821 -2.1270142 1.6436462 -2.9383087c1.1003113 -0.815506 2.8508148 -1.2232513 5.2514954 -1.2232513c2.3052063 0 4.0466156 0.4476776 5.224228 1.3430481c1.1821594 0.8953705 1.875534 2.2194977 2.0801392 3.972412l3.8056335 -0.26483154c-0.06820679 -1.6268005 -0.5592499 -3.0833435 -1.4731445 -4.369644c-0.9139099 -1.2863007 -2.2210999 -2.2594452 -3.921585 -2.919403c-1.6959381 -0.6641693 -3.6555939 -0.9962616 -5.878952 -0.9962616z" fill-rule="evenodd"></path><path fill="#efefef" d="m109.061165 179.32631c1.8796616 0 3.1683655 0.07246399 3.8661194 0.21737671c1.0822296 0.2341156 1.9532394 0.7171936 2.6130219 1.449234c0.66452026 0.7283325 0.996788 1.6053009 0.996788 2.6309204c0 1.4157867 -0.5624771 2.513855 -1.6874237 3.2942047c-1.1249542 0.780365 -3.025978 1.1705322 -5.7030716 1.1705322l-8.095367 0l0 -8.762268zm-12.153732 -2.8928986l0 24.514313l4.143799 0l0 -9.966248l8.031288 0c4.428604 0 7.4901733 -0.7209015 9.184715 -2.1627045c1.6945496 -1.4455109 2.5418167 -3.2106018 2.5418167 -5.295273c0 -1.2151184 -0.31802368 -2.3299103 -0.95407104 -3.3443756c-0.63129425 -1.0144653 -1.4667053 -1.8022461 -2.506218 -2.3633575c-1.039505 -0.5648346 -2.3282166 -0.94758606 -3.8661194 -1.1482391c-1.0964737 -0.15608215 -2.6842194 -0.2341156 -4.763237 -0.2341156z" fill-rule="evenodd"></path></g></svg>

